HIERARCHY
ROOT SimulationBone
{
	OFFSET 0.000000 0.000000 0.000000
	CHANNELS 6 Xposition Yposition Zposition Zrotation Yrotation Xrotation 
	JOINT Hips
	{
		OFFSET 0.000000 0.000000 0.000000
		CHANNELS 6 Xposition Yposition Zposition Zrotation Yrotation Xrotation 
		JOINT RightUpLeg
		{
			OFFSET 0.103458 1.857820 10.548502
			CHANNELS 3 Zrotation Yrotation Xrotation
			JOINT RightLeg
			{
				OFFSET 43.500000 -0.000023 -0.000011
				CHANNELS 3 Zrotation Yrotation Xrotation
				JOINT RightFoot
				{
					OFFSET 42.372192 0.000038 0.000002
					CHANNELS 3 Zrotation Yrotation Xrotation
					JOINT RightToe
					{
						OFFSET 17.299992 -0.000004 0.000006
						CHANNELS 3 Zrotation Yrotation Xrotation
						End Site
						{
							OFFSET 0.000000 0.000000 0.000000
						}
					}
				}
			}
		}
		JOINT LeftUpLeg
		{
			OFFSET 0.103461 1.857814 -10.548508
			CHANNELS 3 Zrotation Yrotation Xrotation
			JOINT LeftLeg
			{
				OFFSET 43.500042 -0.000015 0.000008
				CHANNELS 3 Zrotation Yrotation Xrotation
				JOINT LeftFoot
				{
					OFFSET 42.372253 0.000008 0.000006
					CHANNELS 3 Zrotation Yrotation Xrotation
					JOINT LeftToe
					{
						OFFSET 17.299973 -0.000014 0.000011
						CHANNELS 3 Zrotation Yrotation Xrotation
						End Site
						{
							OFFSET 0.000000 0.000000 0.000000
						}
					}
				}
			}
		}
		JOINT Spine
		{
			OFFSET 6.901966 -2.603737 -0.000007
			CHANNELS 3 Zrotation Yrotation Xrotation
			JOINT Spine1
			{
				OFFSET 12.588102 0.000017 0.000001
				CHANNELS 3 Zrotation Yrotation Xrotation
				JOINT Spine2
				{
					OFFSET 12.343197 -0.000013 0.000000
					CHANNELS 3 Zrotation Yrotation Xrotation
					JOINT Neck
					{
						OFFSET 25.832905 -0.000008 0.000000
						CHANNELS 3 Zrotation Yrotation Xrotation
						JOINT Head
						{
							OFFSET 11.766610 0.000009 -0.000002
							CHANNELS 3 Zrotation Yrotation Xrotation
							End Site
							{
								OFFSET 0.000000 0.000000 0.000000
							}
						}
					}
					JOINT RightShoulder
					{
						OFFSET 19.745903 -1.480377 6.000115
						CHANNELS 3 Zrotation Yrotation Xrotation
						JOINT RightArm
						{
							OFFSET 11.284125 -0.000014 -0.000024
							CHANNELS 3 Zrotation Yrotation Xrotation
							JOINT RightForeArm
							{
								OFFSET 33.000046 -0.000012 0.000029
								CHANNELS 3 Zrotation Yrotation Xrotation
								JOINT RightHand
								{
									OFFSET 25.199989 0.000034 0.000012
									CHANNELS 3 Zrotation Yrotation Xrotation
									End Site
									{
										OFFSET 0.000000 0.000000 0.000000
									}
								}
							}
						}
					}
					JOINT LeftShoulder
					{
						OFFSET 19.746098 -1.480362 -6.000071
						CHANNELS 3 Zrotation Yrotation Xrotation
						JOINT LeftArm
						{
							OFFSET 11.284137 -0.000006 -0.000008
							CHANNELS 3 Zrotation Yrotation Xrotation
							JOINT LeftForeArm
							{
								OFFSET 33.000095 0.000017 0.000000
								CHANNELS 3 Zrotation Yrotation Xrotation
								JOINT LeftHand
								{
									OFFSET 25.199778 0.000144 0.000423
									CHANNELS 3 Zrotation Yrotation Xrotation
									End Site
									{
										OFFSET 0.000000 0.000000 0.000000
									}
								}
							}
						}
					}
				}
			}
		}
	}
}
MOTION
Frames: 15
Frame Time: 0.016667
-165.905205 0.000000 478.738555 0.000000 222.163030 0.000000 5.064813 84.000528 -3.924676 105.929141 -6.401369 176.527526 168.066564 -5.067202 -171.908003 -39.075646 -9.594699 -1.588593 79.395406 -0.565896 -7.787546 21.454558 0.003109 0.000016 170.944533 -2.942610 -179.349488 -80.973373 -0.501783 4.744644 70.683446 -2.179063 3.511752 21.454552 -0.003089 -0.000001 9.485931 0.316355 1.780574 8.966859 0.493903 3.580266 8.649420 0.515368 3.577212 16.322357 1.528479 1.895735 -3.948066 -3.338735 2.823388 -143.841081 -70.429319 -38.606992 26.326253 41.337059 45.953879 -82.112689 -8.094470 2.576313 -4.484445 0.559417 42.472599 -176.470532 77.099134 5.112069 -9.317239 -56.397365 -22.603978 -112.995325 -0.073059 -3.310631 -2.063183 -16.685157 -29.420289 
-166.860458 0.000000 480.180810 0.000000 220.591712 0.000000 5.021053 84.077988 -4.082706 106.057740 -6.712334 176.910266 169.377954 -5.243393 -173.818219 -40.043530 -9.410276 -1.034846 80.998748 -0.814687 -7.568689 21.454558 0.003112 0.000016 169.218756 -1.801611 -177.742723 -82.324126 -0.623827 6.096877 72.228969 -3.419630 2.780037 21.454560 -0.003091 -0.000002 9.605260 0.273267 1.669929 9.203815 0.412935 3.356258 8.886296 0.433049 3.353689 16.760084 1.647654 1.668440 -4.281979 -2.778827 2.459612 -146.234990 -70.695713 -36.136002 21.671124 41.365523 45.076983 -79.494583 -9.917193 2.576557 -3.751237 1.528119 44.648290 -173.124394 75.883834 8.518002 -7.421672 -56.031564 -23.703873 -111.940393 0.039918 -3.274543 -3.290611 -15.896736 -27.435931 
-167.839954 0.000000 481.560666 0.000000 219.019627 0.000000 4.901645 84.318375 -4.208633 105.880624 -6.979524 177.313480 170.781147 -5.381032 -176.213357 -40.206932 -8.741373 -0.443680 82.141446 -1.109535 -7.270734 21.454557 0.003111 0.000017 167.287796 -0.802981 -176.412244 -82.648773 -0.645463 7.216637 72.772492 -4.220061 2.815061 21.454559 -0.003093 -0.000000 9.642557 0.258472 1.533460 9.277643 0.393254 3.082655 8.960026 0.411712 3.080217 17.276964 1.942410 1.574777 -4.525876 -2.542231 2.310488 -148.376233 -70.996975 -33.925027 17.620138 41.697424 43.933176 -77.369416 -11.506048 2.591412 -2.218453 3.272187 48.535725 -170.060300 75.202332 11.649238 -5.294493 -56.449730 -24.969639 -109.524160 0.287932 -3.188892 -4.024514 -14.711452 -26.023518 
-168.850182 0.000000 482.880590 0.000000 217.452765 0.000000 4.735018 84.682358 -4.315016 105.590596 -7.218770 177.732122 172.379467 -5.399309 -178.211930 -39.633934 -8.148363 -0.164055 82.913974 -1.206643 -7.006296 21.454557 0.003107 0.000017 165.377485 0.108400 -175.280426 -81.994009 -0.561895 7.912425 72.567289 -4.669896 2.970921 21.454555 -0.003093 0.000002 9.646184 0.258627 1.338552 9.284431 0.409116 2.693492 8.966691 0.425220 2.690974 17.795916 2.340627 1.613636 -4.479751 -2.623422 2.368850 -149.988999 -71.235817 -32.260026 14.397363 42.248605 42.302960 -76.087125 -12.545147 2.612993 0.092158 5.466790 53.392718 -167.703901 74.870897 14.061432 -2.980104 -57.197115 -26.374356 -106.579002 0.644292 -3.084815 -3.584311 -12.847419 -26.330272 
-169.896266 0.000000 484.142557 0.000000 215.892699 0.000000 4.551257 85.140347 -4.414117 105.358181 -7.465222 178.164945 174.299102 -5.256619 -179.109102 -38.335044 -8.062851 -0.462552 83.383066 -0.944521 -6.935723 21.454557 0.003100 0.000017 163.702477 0.990559 -174.342808 -80.413350 -0.292412 8.046564 72.133966 -4.905764 2.541126 21.454554 -0.003091 0.000002 9.663042 0.256188 1.066659 9.317343 0.425740 2.150451 8.999465 0.438567 2.147837 18.277444 2.757152 1.748265 -4.075773 -2.959833 2.576890 -150.851100 -71.347088 -31.369938 11.959436 42.938212 40.113985 -75.771493 -12.896681 2.623802 2.906787 7.670375 58.291480 -166.498805 74.592498 15.296390 -0.622500 -57.714899 -27.817189 -103.975877 1.096632 -3.002156 -1.549906 -10.097251 -29.624708 
-170.979893 0.000000 485.347580 0.000000 214.335542 0.000000 4.353427 85.655899 -4.499559 105.106659 -7.679893 178.638037 176.375565 -5.019607 -179.321330 -36.526403 -8.174682 -1.135162 83.598154 -0.471920 -7.042073 21.454558 0.003097 0.000017 162.254067 1.764096 -173.771474 -77.990193 0.329948 7.734378 71.916468 -4.896389 1.955122 21.454557 -0.003091 0.000001 9.674037 0.266902 0.750089 9.338467 0.472464 1.519251 9.020467 0.481485 1.516357 18.674111 3.094886 1.912959 -3.612724 -3.359717 2.824911 -151.105011 -71.424911 -31.105950 9.948791 43.716604 37.800325 -76.182297 -12.850299 2.638433 5.897669 9.386169 62.542634 -165.751915 74.298138 16.062975 1.612343 -57.916211 -29.274982 -101.959390 1.660492 -2.952505 1.511019 -7.161034 -37.210070 
-172.098810 0.000000 486.497028 0.000000 212.778290 0.000000 4.141743 86.190443 -4.560724 104.725117 -7.802979 179.171186 178.402006 -4.755032 -179.438423 -34.463391 -8.096293 -1.892948 83.613993 0.018456 -7.269229 21.454557 0.003103 0.000016 160.974935 2.312588 -173.677321 -74.801006 1.385299 7.185509 72.187968 -4.620387 1.732499 21.454558 -0.003094 0.000000 9.650475 0.309651 0.429019 9.290486 0.583911 0.881498 8.972402 0.589085 0.877942 18.936009 3.292570 2.038666 -3.377100 -3.650779 3.012037 -150.996506 -71.589396 -31.212806 8.037710 44.547927 35.807608 -77.007013 -12.717258 2.664641 8.573212 10.241192 65.559671 -164.723105 73.968920 17.119672 3.593882 -57.847705 -30.714919 -100.553796 2.330511 -2.936876 4.837654 -4.598845 -49.905531 
-173.248506 0.000000 487.594555 0.000000 211.222408 0.000000 3.919391 86.703743 -4.597225 104.201045 -7.797483 179.727415 -179.707796 -4.539700 -179.610015 -32.334760 -7.833066 -2.643617 83.527400 0.477608 -7.567321 21.454557 0.003109 0.000016 159.858829 2.530698 -173.753838 -70.848226 2.501946 6.651014 72.636780 -4.313187 1.608144 21.454557 -0.003096 0.000000 9.592065 0.383810 0.124234 9.172411 0.756610 0.278484 8.854281 0.758144 0.273902 19.016058 3.440506 2.076866 -3.248021 -3.881970 3.100412 -150.733052 -71.932277 -31.473978 6.292990 45.394809 34.111555 -78.016851 -12.466378 2.690796 10.162033 10.145205 67.218609 -163.489319 73.624961 18.387831 5.300141 -57.619146 -31.929525 -99.518280 2.994988 -2.937572 7.697178 -2.412611 -65.890711 
-174.425288 0.000000 488.646193 0.000000 209.677759 0.000000 3.688341 87.157847 -4.610752 103.550315 -7.656222 -179.740094 -178.001301 -4.421226 -179.866001 -30.287103 -7.476417 -3.360924 83.432563 0.897848 -7.897115 21.454558 0.003108 0.000016 158.917587 2.383552 -173.667209 -66.130957 3.295268 6.323845 72.908700 -4.218431 1.242927 21.454552 -0.003093 -0.000000 9.505848 0.481326 -0.152593 8.998043 0.973091 -0.267320 8.679896 0.971324 -0.273196 18.890222 3.642499 2.008144 -3.069003 -4.123226 3.082716 -150.538323 -72.501989 -31.657381 4.847518 46.209069 32.550237 -79.066188 -12.004665 2.703504 10.132152 9.201342 67.622281 -162.262087 73.287875 19.650364 6.788349 -57.318075 -32.708820 -98.593431 3.533639 -2.934421 9.790314 -0.890101 -82.823140 
-175.626389 0.000000 489.660373 0.000000 208.158672 0.000000 3.448331 87.525612 -4.603573 102.794944 -7.469409 -179.230789 -176.494998 -4.311491 179.819073 -28.381776 -7.058053 -4.053510 83.368448 1.290614 -8.261734 21.454560 0.003106 0.000017 158.159410 2.054993 -173.398723 -60.769975 3.844008 6.297707 73.069595 -4.357098 0.808974 21.454548 -0.003089 0.000000 9.399461 0.583469 -0.406745 8.782541 1.196137 -0.768089 8.464405 1.191341 -0.775302 18.622509 3.906454 1.905981 -2.946677 -4.301914 3.022511 -150.769075 -73.198792 -31.399990 3.690211 46.902225 30.854081 -80.259865 -11.332224 2.708977 9.003636 8.066892 67.185647 -161.086459 72.928125 20.861417 8.237941 -56.864851 -32.919383 -97.712542 3.901963 -2.920817 11.467008 -0.526262 -97.234873 
-176.848329 0.000000 490.645855 0.000000 206.667316 0.000000 3.199246 87.793065 -4.577855 101.969209 -7.334665 -178.720473 -175.161111 -4.122798 179.459029 -26.624621 -6.602646 -4.715072 83.340615 1.657682 -8.655842 21.454558 0.003108 0.000018 157.620505 1.727960 -172.997148 -54.879553 4.276196 6.674363 73.225551 -4.706456 0.596260 21.454548 -0.003090 0.000001 9.284927 0.670698 -0.648860 8.550067 1.387492 -1.246504 8.231973 1.379807 -1.254865 18.276186 4.239052 1.842544 -3.007789 -4.360831 2.987203 -151.637179 -73.935317 -30.488724 2.759805 47.421170 28.807606 -81.721981 -10.472875 2.713610 7.444672 7.275916 66.258295 -159.976069 72.521011 22.007488 9.749735 -56.196852 -32.459663 -96.864619 4.098012 -2.896361 13.209857 -1.553761 -105.958188 
-178.090957 0.000000 491.602748 0.000000 205.193258 0.000000 2.944961 87.988113 -4.542661 101.178984 -7.271659 -178.185079 -173.820296 -3.892896 178.944700 -24.881901 -6.170730 -5.243547 83.278173 1.942196 -8.998313 21.454558 0.003110 0.000018 157.454083 1.376914 -172.442879 -48.425869 4.499326 7.591050 73.220201 -5.289363 0.849325 21.454551 -0.003092 0.000002 9.190827 0.730839 -0.894250 8.357988 1.524315 -1.733558 8.039957 1.513689 -1.742736 17.821186 4.735764 1.789943 -3.193725 -4.445165 2.983364 -152.390985 -74.836323 -29.692053 1.930491 47.921480 26.510366 -83.405269 -9.454087 2.715466 5.731424 6.398668 64.737748 -158.938747 72.113693 23.079883 11.025039 -55.483967 -31.329967 -96.068338 4.214382 -2.869546 14.927633 -2.873353 -109.362290 
-179.358357 0.000000 492.521045 0.000000 203.723589 0.000000 2.686815 88.139365 -4.515450 100.505385 -7.275196 -177.615293 -172.318505 -3.671475 178.211822 -23.022159 -5.834009 -5.575231 83.131165 2.111604 -9.220300 21.454560 0.003107 0.000017 157.766168 0.938168 -171.634378 -41.406235 4.344798 9.054184 72.943273 -6.099908 1.630002 21.454551 -0.003093 0.000001 9.136666 0.760034 -1.152582 8.245566 1.600188 -2.248318 7.927617 1.586450 -2.257941 17.241788 5.433885 1.713179 -3.405142 -4.669037 3.002494 -152.218402 -76.014260 -29.837057 1.093791 48.539807 24.076919 -85.225858 -8.290216 2.712877 4.053629 4.967626 62.570821 -157.950312 71.783080 24.101898 11.789184 -54.909590 -29.610957 -95.313002 4.338714 -2.845097 16.195282 -3.409491 -108.515261 
-180.648593 0.000000 493.395963 0.000000 202.244346 0.000000 2.416910 88.236366 -4.497406 99.855909 -7.295521 -177.053854 -170.754374 -3.465196 177.504882 -21.072044 -5.657009 -5.893034 83.004242 2.291985 -9.375944 21.454562 0.003104 0.000016 158.360326 0.415297 -170.206880 -34.093233 3.728144 10.593909 72.766888 -6.986617 2.291415 21.454550 -0.003092 -0.000001 9.088931 0.779627 -1.406516 8.145935 1.656220 -2.754972 7.828091 1.639419 -2.764920 16.677939 6.052125 1.662164 -3.565414 -4.820858 3.034233 -151.645060 -77.273429 -30.387929 0.363178 49.136954 21.450975 -87.121589 -6.940121 2.703962 2.504120 3.364279 60.220985 -156.903323 71.652336 25.181084 12.195269 -54.509614 -27.514660 -94.441400 4.443361 -2.813172 16.979541 -3.562428 -104.645997 
-181.951327 0.000000 494.233452 0.000000 200.743438 0.000000 2.140601 88.257913 -4.478720 99.157948 -7.292512 -176.568008 -169.237690 -3.257339 177.029582 -19.133025 -5.646098 -6.375362 83.013204 2.598681 -9.542861 21.454559 0.003104 0.000016 159.000190 -0.172607 -167.985653 -26.880863 2.773640 11.830749 73.085461 -7.861266 2.230760 21.454549 -0.003091 -0.000002 9.017415 0.807811 -1.631196 7.998740 1.726293 -3.203045 7.681020 1.706788 -3.213405 16.273321 6.315036 1.682753 -3.634307 -4.699202 3.058129 -151.579742 -78.395717 -30.423373 -0.146751 49.545707 18.610531 -89.041207 -5.423959 2.686653 1.101951 2.094117 58.077679 -155.682030 71.805596 26.433563 12.436353 -54.264537 -25.281161 -93.333897 4.504538 -2.767484 17.434248 -3.873050 -99.064189 
